<svg width="20" height="20" viewBox="0 0 20 20" fill="none" xmlns="http://www.w3.org/2000/svg">
<path fill-rule="evenodd" clip-rule="evenodd" d="M4.99986 3.57153H14.9999C15.7888 3.57153 16.4284 4.21113 16.4284 5.0001V15.0001C16.4284 15.7891 15.7888 16.4287 14.9999 16.4287H4.99986C4.21088 16.4287 3.57129 15.7891 3.57129 15.0001V5.0001C3.57129 4.21113 4.21088 3.57153 4.99986 3.57153ZM14.2784 7.85007C14.6689 7.45954 14.6689 6.82638 14.2784 6.43585C13.8879 6.04533 13.2547 6.04533 12.8642 6.43585L8.57129 10.7287L7.13554 9.293C6.74501 8.90247 6.11185 8.90247 5.72133 9.293C5.3308 9.68352 5.3308 10.3167 5.72133 10.7072L7.86418 12.8501C8.25471 13.2406 8.88787 13.2406 9.2784 12.8501L14.2784 7.85007Z" fill="#3E3E3E"/>
</svg>
