<svg width="16" height="22" viewBox="0 0 16 22" fill="none" xmlns="http://www.w3.org/2000/svg">
<path d="M6.23291 0C5.50326 0 4.90186 0.596406 4.90186 1.32V2.2H1.43559C1.38013 2.18969 1.32466 2.18969 1.2692 2.2H0.465029C0.451164 2.2 0.437299 2.2 0.423434 2.2C0.179062 2.21203 -0.0115836 2.41828 0.000548449 2.66062C0.0126805 2.90297 0.220657 3.09203 0.465029 3.08H0.950307L2.54479 20.9C2.60025 21.5153 3.12886 22 3.75106 22H12.2642C12.8864 22 13.415 21.5153 13.4705 20.9L15.065 3.08H15.5503C15.7097 3.08172 15.8587 2.99922 15.9402 2.86172C16.0199 2.72422 16.0199 2.55578 15.9402 2.41828C15.8587 2.28078 15.7097 2.19828 15.5503 2.2H11.1134V1.32C11.1134 0.596406 10.512 0 9.78237 0H6.23291ZM6.23291 0.88H9.78237C10.0319 0.88 10.2261 1.0725 10.2261 1.32V2.2H5.78923V1.32C5.78923 1.0725 5.98334 0.88 6.23291 0.88ZM1.83767 3.08H14.1776L12.5831 20.8312C12.5693 20.9842 12.4046 21.12 12.2642 21.12H3.75106C3.61067 21.12 3.44602 20.9842 3.43216 20.8312L1.83767 3.08ZM5.30395 4.38625C5.28488 4.38969 5.26582 4.39484 5.24849 4.4C5.04224 4.44641 4.89666 4.63031 4.90186 4.84V19.36C4.90013 19.5181 4.98332 19.6659 5.12197 19.7467C5.26062 19.8258 5.43047 19.8258 5.56912 19.7467C5.70777 19.6659 5.79096 19.5181 5.78923 19.36V4.84C5.79442 4.71281 5.74243 4.59078 5.65057 4.50484C5.55698 4.41719 5.43047 4.37422 5.30395 4.38625ZM7.96604 4.38625C7.94698 4.38969 7.92792 4.39484 7.91058 4.4C7.70434 4.44641 7.55876 4.63031 7.56396 4.84V19.36C7.56222 19.5181 7.64541 19.6659 7.78407 19.7467C7.92272 19.8258 8.09256 19.8258 8.23121 19.7467C8.36987 19.6659 8.45306 19.5181 8.45132 19.36V4.84C8.45652 4.71281 8.40453 4.59078 8.31267 4.50484C8.21908 4.41719 8.09256 4.37422 7.96604 4.38625ZM10.6281 4.38625C10.6091 4.38969 10.59 4.39484 10.5727 4.4C10.3664 4.44641 10.2209 4.63031 10.2261 4.84V19.36C10.2243 19.5181 10.3075 19.6659 10.4462 19.7467C10.5848 19.8258 10.7547 19.8258 10.8933 19.7467C11.032 19.6659 11.1152 19.5181 11.1134 19.36V4.84C11.1186 4.71281 11.0666 4.59078 10.9748 4.50484C10.8812 4.41719 10.7547 4.37422 10.6281 4.38625Z" fill="#5F5F5F"/>
</svg>
