<svg width="28" height="35" viewBox="0 0 28 35" fill="none" xmlns="http://www.w3.org/2000/svg">
<path fill-rule="evenodd" clip-rule="evenodd" d="M13.2887 0.0753656C11.9591 0.49406 11.2898 1.42594 11.1793 3.01239L11.1059 4.06596L10.3412 4.29997C8.03663 5.00507 5.95444 6.72729 4.90735 8.79449C3.82772 10.926 3.76264 11.3711 3.66188 17.3051C3.57745 22.2706 3.55757 22.5748 3.26523 23.3873C2.81004 24.6526 2.00492 26.1631 0.931007 27.7669C-0.0458199 29.2258 -0.167549 29.5905 0.169996 30.0454C0.35259 30.2913 0.608166 30.3091 4.83205 30.3725L9.30089 30.4395L9.3909 31.0599C9.52379 31.9751 9.95406 32.8265 10.6582 33.5674C12.4733 35.4775 15.5299 35.4775 17.3451 33.5674C18.0492 32.8265 18.4794 31.9751 18.6123 31.0599L18.7023 30.4395L23.1712 30.3725C27.3951 30.3091 27.6506 30.2913 27.8332 30.0454C28.1743 29.5858 28.0477 29.2357 26.9294 27.5465C25.801 25.8419 25.2279 24.7723 24.7263 23.4339C24.4597 22.7225 24.4311 22.2871 24.3381 17.5061C24.2829 14.6681 24.1757 12.0748 24.0998 11.743C23.2813 8.16377 21.007 5.53273 17.7307 4.37516L16.8983 4.0811L16.8245 3.02003C16.733 1.70672 16.3184 0.922537 15.4507 0.422088C14.8005 0.046952 13.8588 -0.104094 13.2887 0.0753656ZM14.6205 2.15423C14.8774 2.407 14.9548 2.62425 14.9548 3.0924V3.70155H14.0016H13.0485V3.0924C13.0485 2.40954 13.488 1.8252 14.0016 1.8252C14.1582 1.8252 14.4367 1.97329 14.6205 2.15423ZM16.7492 30.8416C16.6798 31.4804 16.1618 32.2696 15.5217 32.7121C15.0054 33.0688 14.8161 33.12 14.014 33.12C13.238 33.12 13.0082 33.0624 12.5226 32.7461C12.2069 32.5404 11.8279 32.1785 11.6805 31.9419C11.3672 31.4395 11.1207 30.6493 11.2251 30.4828C11.2652 30.4192 12.5343 30.3834 14.0455 30.4033L16.7929 30.4395L16.7492 30.8416Z" fill="white"/>
</svg>
