<svg width="70" height="70" viewBox="0 0 70 70" fill="none" xmlns="http://www.w3.org/2000/svg">
<path fill-rule="evenodd" clip-rule="evenodd" d="M7.68088 29.3771L7.71572 53.7529L10.6076 53.8365C15.3967 53.9749 19.0033 54.489 23.8458 55.7235C27.3765 56.6235 31.5616 58.0682 33.6451 59.1059L34.5 59.5318L35.2918 59.1381C37.4319 58.0742 41.6168 56.6253 45.1542 55.7235C49.9556 54.4994 53.5756 53.982 58.3235 53.841L61.2843 53.7529L61.3191 29.3764L61.3538 5L58.083 5.0818C50.802 5.26402 43.157 6.87868 36.3847 9.66464L34.4824 10.4472L33.2174 9.90379C26.4642 7.00301 18.3603 5.25437 10.8482 5.07691L7.64618 5.00136L7.68088 29.3771ZM16.2863 8.44035C21.4926 9.09842 27.5697 10.6541 31.8636 12.4278L32.9164 12.8627L32.9512 34.3076C32.9844 54.7018 32.9742 55.7475 32.7446 55.6499C27.0807 53.2417 18.9796 51.4406 12.5011 51.1493L10.5387 51.061V29.5242V7.98733L12.3272 8.0766C13.3108 8.12579 15.0925 8.28939 16.2863 8.44035ZM58.4613 29.5452V51.061L56.4733 51.1501C49.9505 51.4427 42.5756 53.0902 36.1865 55.6825C36.0485 55.7385 36.021 51.4493 36.0488 34.3076L36.0836 12.8627L37.1364 12.4278C42.8734 10.058 51.5713 8.17321 57.3252 8.05296L58.4613 8.02918V29.5452ZM2.03484 35.6469L2.06968 59.324L5.78781 59.4108C11.228 59.5377 15.5152 60.0012 20.798 61.0334C25.246 61.9023 29.7145 63.1456 33.0885 64.4531L34.5 65L35.9115 64.4531C41.8389 62.1563 49.7144 60.4373 57.9104 59.6509C58.7814 59.5674 61.1672 59.4596 63.2122 59.4115L66.9303 59.324L66.9652 35.6469L67 11.9697H65.5536H64.1073V34.2541C64.1073 46.5105 64.0609 56.539 64.004 56.5397C63.2054 56.5492 58.2787 56.8411 57.0842 56.9496C49.801 57.6114 41.1494 59.452 35.7738 61.4834L34.5 61.9648L33.2262 61.4834C27.9622 59.4941 19.7268 57.7119 12.6044 57.0208C11.001 56.8653 6.0668 56.5533 4.99598 56.5398C4.93911 56.539 4.8927 46.5105 4.8927 34.2541V11.9697H3.44635H2L2.03484 35.6469Z" fill="#2E62D9"/>
</svg>
