<svg width="102" height="35" viewBox="0 0 102 35" fill="none" xmlns="http://www.w3.org/2000/svg">
<path fill-rule="evenodd" clip-rule="evenodd" d="M20.4079 9.45926e-05L10.0235 9.5C10.0235 9.5 -1.35005 20 0.133461 20H42.6603C42.6603 20 80.7366 20 83.2091 20C85.479 18.4509 102.273 0.496454 101.979 0H61.4512C61.4512 0 23.3749 9.45926e-05 20.4079 9.45926e-05ZM90.9104 19.6254C90.9104 19.6254 85.0514 25.2389 84.2356 25.7775C82.8117 26.7169 81.2473 26.7565 45.1623 26.7581L7.57233 26.7601L4.18796 30.3126C4.18796 30.3126 0.133479 34.5 1.12244 35C5.57293 35 41.5213 35 41.5213 35C77.2256 35 81.7368 34.911 83.1479 34.1766C85.049 33.1873 100.517 16 102 14H99.033H96.5605L90.9104 19.6254Z" fill="white"/>
</svg>
