<svg width="31" height="35" viewBox="0 0 31 35" fill="none" xmlns="http://www.w3.org/2000/svg">
<path d="M20.1257 1.16059C22.9101 2.81454 24.2973 6.11182 24.279 11.034C24.2635 15.0988 23.2382 18.0074 21.4777 20.4855C21.0503 20.751 20.1257 21.5539 20.1257 22.6095C20.1257 22.6095 19.3652 26.4973 22.534 26.4973C27.8154 27.5657 29.3923 30.1252 30.2801 31.8953C31.1679 33.6654 30.9843 35 30.9843 35H15.4922H2.21717e-05C2.21717e-05 35 -0.0140603 33.4161 0.667593 31.8953C1.86823 29.2176 3.95544 27.8022 8.62632 26.4973C10.9825 25.8391 10.2107 22.6095 10.2107 22.6095C9.91216 21.8585 8.79776 20.9199 8.27423 19.8482C6.70811 16.6409 6.33771 14.9119 6.33771 10.8018C6.33771 5.28626 7.59117 2.60072 10.9825 0.84835C13.3965 -0.399192 17.7498 -0.250506 20.1257 1.16059Z" fill="white"/>
</svg>
