<svg width="16" height="17" viewBox="0 0 16 17" fill="none" xmlns="http://www.w3.org/2000/svg">
<path d="M14.3082 0.5C13.8747 0.5 13.4425 0.669833 13.1122 0.99999L12.8296 1.28259L15.2214 3.67385C15.2201 3.67521 15.5041 3.39124 15.5041 3.39124C16.166 2.72957 16.1646 1.6603 15.5041 0.99999C15.1725 0.669833 14.7417 0.5 14.3082 0.5ZM12.2968 1.90214C12.218 1.91301 12.1446 1.95242 12.0902 2.01084L0.804878 13.3041C0.76003 13.3448 0.726054 13.3978 0.707028 13.4563L0.0112053 16.0649C-0.0200524 16.1845 0.0152825 16.3108 0.10226 16.3978C0.189238 16.4847 0.315628 16.52 0.435222 16.4888L3.04456 15.7932C3.10299 15.7741 3.156 15.7402 3.19677 15.6953L14.493 4.41296C14.6316 4.27845 14.633 4.05699 14.4984 3.91841C14.3639 3.77982 14.1424 3.77846 14.0038 3.91297L2.77275 15.141L1.35936 13.728L12.5904 2.49996C12.695 2.39942 12.7263 2.24317 12.6678 2.11002C12.6094 1.97687 12.4749 1.89399 12.3294 1.90214C12.3186 1.90214 12.3077 1.90214 12.2968 1.90214Z" fill="#3E3E3E"/>
</svg>
