<svg width="16" height="23" viewBox="0 0 16 23" fill="none" xmlns="http://www.w3.org/2000/svg">
<path d="M6.23291 0.5C5.50326 0.5 4.90186 1.09641 4.90186 1.82V2.7H1.43559C1.38013 2.68969 1.32466 2.68969 1.2692 2.7H0.465029C0.451164 2.7 0.437299 2.7 0.423434 2.7C0.179062 2.71203 -0.0115836 2.91828 0.000548449 3.16062C0.0126805 3.40297 0.220657 3.59203 0.465029 3.58H0.950307L2.54479 21.4C2.60025 22.0153 3.12886 22.5 3.75106 22.5H12.2642C12.8864 22.5 13.415 22.0153 13.4705 21.4L15.065 3.58H15.5503C15.7097 3.58172 15.8587 3.49922 15.9402 3.36172C16.0199 3.22422 16.0199 3.05578 15.9402 2.91828C15.8587 2.78078 15.7097 2.69828 15.5503 2.7H11.1134V1.82C11.1134 1.09641 10.512 0.5 9.78237 0.5H6.23291ZM6.23291 1.38H9.78237C10.0319 1.38 10.2261 1.5725 10.2261 1.82V2.7H5.78923V1.82C5.78923 1.5725 5.98334 1.38 6.23291 1.38ZM1.83767 3.58H14.1776L12.5831 21.3312C12.5693 21.4842 12.4046 21.62 12.2642 21.62H3.75106C3.61067 21.62 3.44602 21.4842 3.43216 21.3312L1.83767 3.58ZM5.30395 4.88625C5.28488 4.88969 5.26582 4.89484 5.24849 4.9C5.04224 4.94641 4.89666 5.13031 4.90186 5.34V19.86C4.90013 20.0181 4.98332 20.1659 5.12197 20.2467C5.26062 20.3258 5.43047 20.3258 5.56912 20.2467C5.70777 20.1659 5.79096 20.0181 5.78923 19.86V5.34C5.79442 5.21281 5.74243 5.09078 5.65057 5.00484C5.55698 4.91719 5.43047 4.87422 5.30395 4.88625ZM7.96604 4.88625C7.94698 4.88969 7.92792 4.89484 7.91058 4.9C7.70434 4.94641 7.55876 5.13031 7.56396 5.34V19.86C7.56222 20.0181 7.64541 20.1659 7.78407 20.2467C7.92272 20.3258 8.09256 20.3258 8.23121 20.2467C8.36987 20.1659 8.45306 20.0181 8.45132 19.86V5.34C8.45652 5.21281 8.40453 5.09078 8.31267 5.00484C8.21908 4.91719 8.09256 4.87422 7.96604 4.88625ZM10.6281 4.88625C10.6091 4.88969 10.59 4.89484 10.5727 4.9C10.3664 4.94641 10.2209 5.13031 10.2261 5.34V19.86C10.2243 20.0181 10.3075 20.1659 10.4462 20.2467C10.5848 20.3258 10.7547 20.3258 10.8933 20.2467C11.032 20.1659 11.1152 20.0181 11.1134 19.86V5.34C11.1186 5.21281 11.0666 5.09078 10.9748 5.00484C10.8812 4.91719 10.7547 4.87422 10.6281 4.88625Z" fill="#3E3E3E"/>
</svg>
