<svg width="70" height="70" viewBox="0 0 70 70" fill="none" xmlns="http://www.w3.org/2000/svg">
<path fill-rule="evenodd" clip-rule="evenodd" d="M5.78021 5.12735C5.62328 5.19048 5.37871 5.43027 5.23665 5.66013C4.9931 6.05431 4.98038 6.25147 5.0132 9.11178L5.04817 12.1452L5.46354 12.5165C5.83834 12.8513 5.96551 12.8876 6.76713 12.8876H7.65535V33.3136V53.7397L8.02645 54.1554L8.39756 54.5711L20.9987 54.6047L33.5999 54.6384V56.034V57.4296L33.123 57.676C32.5114 57.9919 31.8003 58.7423 31.4217 59.4713C30.9683 60.3444 30.993 61.8217 31.4774 62.809C32.1623 64.2047 33.4285 64.9923 34.9997 64.9998C35.7902 65.0036 36.0777 64.944 36.6733 64.6524C37.5024 64.2465 38.2173 63.5121 38.6042 62.6687C38.9982 61.8099 38.9846 60.258 38.5761 59.4713C38.1975 58.7423 37.4864 57.9919 36.8748 57.676L36.3979 57.4296V56.034V54.6384L48.999 54.6047L61.6002 54.5711L61.9713 54.1554L62.3424 53.7397V33.3136V12.8876H63.2307C64.0323 12.8876 64.1594 12.8513 64.5342 12.5165L64.9496 12.1453L64.9879 9.14984C65.0202 6.62579 64.9948 6.09364 64.8268 5.76845C64.3956 4.93402 66.7991 4.99562 34.9735 5.0044C18.1109 5.00911 5.94669 5.0604 5.78021 5.12735ZM62.3424 8.94199V10.2148H34.9989H7.65535V8.94199V7.66921H34.9989H62.3424V8.94199ZM59.6717 32.4247V51.9619H34.9989H10.3261V32.4247V12.8876H34.9989H59.6717V32.4247ZM15.787 24.9692C15.2362 25.5204 15.261 26.2501 15.8506 26.8402L16.2858 27.2757L24.0508 27.2411L53.8157 27.2064L54.146 26.8758C54.352 26.6696 54.5028 26.3476 54.5467 26.0203C54.6103 25.5456 54.5739 25.4521 54.1684 25.0462L53.7197 24.5972H23.9392H16.1588L15.787 24.9692ZM16.0652 31.266C15.1721 31.7614 15.2151 33.1465 16.1382 33.619C16.3337 33.719 18.6827 33.7612 24.0678 33.7612H53.7197L54.1521 33.3284C54.7536 32.7264 54.7536 32.1231 54.1521 31.5211L53.7197 31.0883L24.0444 31.0928C17.9179 31.0965 16.3078 31.1313 16.0652 31.266ZM16.2277 37.7042C15.3854 38.0448 15.144 39.2368 15.787 39.8803L16.1588 40.2523H23.9392H53.7197L54.1521 39.8196C54.8008 39.1703 54.7002 38.3107 53.92 37.8346C53.5157 37.5879 31.2826 37.5806 23.9999 37.588C19.8729 37.5922 16.3755 37.6445 16.2277 37.7042ZM35.6418 59.9842C35.9503 60.1494 36.2707 60.7592 36.2707 61.1812C36.2707 61.3585 36.1048 61.6895 35.9021 61.9164C35.5971 62.258 35.4415 62.3293 34.9989 62.3293C34.5522 62.3293 34.401 62.2585 34.0813 61.9004C33.7492 61.5285 33.7078 61.4023 33.7686 60.949C33.8884 60.0543 34.8491 59.5596 35.6418 59.9842Z" fill="#2E62D9"/>
</svg>
