<svg width="70" height="70" viewBox="0 0 70 70" fill="none" xmlns="http://www.w3.org/2000/svg">
<path fill-rule="evenodd" clip-rule="evenodd" d="M30.5516 5.26652C23.9653 6.2897 18.5118 9.06254 13.7412 13.8142C9.38661 18.1515 6.76394 22.9889 5.4326 29.1391C5.06194 30.8511 5 31.6967 5 35.0391C5 39.3355 5.27347 41.1676 6.43216 44.6338C9.35192 53.3681 16.6471 60.6538 25.3928 63.5697C28.8635 64.7269 30.698 65 35 65C39.2805 65 41.1391 64.7259 44.5351 63.5937C53.3693 60.6488 60.6332 53.4127 63.5678 44.6338C64.7265 41.1676 65 39.3355 65 35.0391C65 30.7428 64.7265 28.9107 63.5678 25.4445C60.0049 14.786 50.4974 6.87895 39.2879 5.25148C36.9368 4.91023 32.7996 4.91728 30.5516 5.26652ZM39.5879 7.93315C48.0379 9.34745 55.5083 14.8012 59.4587 22.4401C60.5713 24.5911 61.7463 28.1032 62.1414 30.4573C62.5355 32.8055 62.5355 37.2728 62.1414 39.621C61.4963 43.4658 59.6767 47.8194 57.3468 51.093C55.9409 53.0686 53.053 55.9527 51.0748 57.3568C47.7381 59.7255 43.401 61.5171 39.4278 62.1682C36.7314 62.6101 31.633 62.4824 29.1776 61.9114C20.7842 59.9593 14.1117 54.7661 10.3301 47.2429C9.37079 45.3344 8.22354 41.7966 7.85859 39.621C7.46449 37.2728 7.46449 32.8055 7.85859 30.4573C9.49123 20.7281 16.4727 12.4187 25.7473 9.16627C27.317 8.61566 29.898 7.96475 31.2838 7.76986C32.8298 7.55251 37.91 7.65224 39.5879 7.93315ZM24.8339 19.7807C24.5461 20.0983 24.5185 21.4302 24.5185 35.0152V49.9018L25.0063 50.389C25.3351 50.7173 25.6383 50.8486 25.9362 50.7917C26.4629 50.6912 50.9125 36.4995 51.5322 35.9346C52.0555 35.4577 52.106 34.4607 51.6275 34.0519C51.4442 33.8953 49.4073 32.6928 47.1014 31.3798C44.7954 30.0669 39.157 26.8417 34.5714 24.2125C29.0309 21.036 26.0522 19.4325 25.6917 19.4325C25.3934 19.4325 25.0073 19.5892 24.8339 19.7807ZM37.6019 28.9777C43.2983 32.2385 47.9561 34.9579 47.9529 35.0205C47.9494 35.0831 43.297 37.8382 37.6143 41.1428L27.2818 47.1514L27.2361 45.6155C27.1503 42.7332 27.091 23.0485 27.168 23.0487C27.2103 23.0487 31.9057 25.7167 37.6019 28.9777Z" fill="#2E62D9"/>
</svg>
