<svg width="32" height="32" viewBox="0 0 32 32" fill="none" xmlns="http://www.w3.org/2000/svg">
<path d="M6.96659 26.6667C6.38881 26.6667 5.88881 26.4556 5.46659 26.0334C5.04436 25.6112 4.83325 25.1 4.83325 24.5V7.50005C4.83325 6.90005 5.04436 6.38894 5.46659 5.96672C5.88881 5.54449 6.38881 5.33338 6.96659 5.33338H18.1666V6.66672H6.96659C6.72214 6.66672 6.52747 6.74449 6.38259 6.90005C6.23859 7.0556 6.16659 7.2556 6.16659 7.50005V24.5C6.16659 24.7445 6.23859 24.9445 6.38259 25.1C6.52747 25.2556 6.72214 25.3334 6.96659 25.3334H23.9999C24.2444 25.3334 24.4444 25.2556 24.5999 25.1C24.7555 24.9445 24.8333 24.7445 24.8333 24.5V13.3334H26.1666V24.5C26.1666 25.1 25.9555 25.6112 25.5333 26.0334C25.111 26.4556 24.5999 26.6667 23.9999 26.6667H6.96659ZM23.1666 10.9667V8.30005H20.4999V6.96672H23.1666V4.30005H24.4999V6.96672H27.1666V8.30005H24.4999V10.9667H23.1666ZM9.49992 22H21.6999L17.9333 16.9667L14.4333 21.4L12.0999 18.5667L9.49992 22ZM6.16659 6.66672V25.3334V6.66672Z" fill="#5F5F5F"/>
</svg>
