<svg width="32" height="32" viewBox="0 0 32 32" fill="none" xmlns="http://www.w3.org/2000/svg">
<path d="M15.3333 27.3333V22.6333C13.2444 22.4555 11.5 21.6053 10.1 20.0826C8.7 18.5608 8 16.7555 8 14.6666H9.33333C9.33333 16.511 9.98356 18.083 11.284 19.3826C12.5836 20.683 14.1556 21.3333 16 21.3333C17.8444 21.3333 19.4169 20.683 20.7173 19.3826C22.0169 18.083 22.6667 16.511 22.6667 14.6666H24C24 16.7555 23.3 18.5608 21.9 20.0826C20.5 21.6053 18.7556 22.4555 16.6667 22.6333V27.3333H15.3333Z" fill="#5F5F5F"/>
<path fill-rule="evenodd" clip-rule="evenodd" d="M15.9999 17.3335C14.8 17.3335 13.8667 16.9335 13.3333 16.6668C12.8 16.4001 12 15.4224 12 14.6668V6.66664C12 5.91105 12.7141 4.88597 13.2 4.40003C13.7513 3.84866 14.8629 3.585 16 3.59997C17.0872 3.61427 18.1057 3.9442 18.6667 4.40003C19.2 4.83338 20 5.91105 20 6.66664V14.6668C20 15.4224 19.1376 16.3187 18.6667 16.6668C18.0932 17.0906 17.1161 17.3335 15.9999 17.3335ZM18 15.6001C17.6 16.0001 16.3778 16.0001 16 16.0001C15.6222 16.0001 14.4 16.0001 14 15.6001C13.9375 15.5376 13.3333 15.0446 13.3333 14.6668V6.66664C13.3333 5.79587 14 5.19995 14 5.19995C14.4 4.79995 15.1281 4.79995 16 4.79995C16.8719 4.79995 17.6 4.79995 18 5.19995C18.2245 5.37888 18.6667 5.84257 18.6667 6.66664V14.6668C18.6667 15.0446 18.1023 15.4978 18 15.6001Z" fill="#5F5F5F"/>
</svg>
