<svg width="30" height="30" viewBox="0 0 30 30" fill="none" xmlns="http://www.w3.org/2000/svg">
<path d="M9.53125 24.7188C8.96875 24.7188 8.48958 24.5208 8.09375 24.125C7.69792 23.7292 7.5 23.25 7.5 22.6875V7.21875H6.25V5.96875H11.25V5H18.75V5.96875H23.75V7.21875H22.5V22.6875C22.5 23.2708 22.3075 23.7554 21.9225 24.1413C21.5367 24.5262 21.0521 24.7188 20.4688 24.7188H9.53125ZM21.25 7.21875H8.75V22.6875C8.75 22.9167 8.82292 23.1042 8.96875 23.25C9.11458 23.3958 9.30208 23.4688 9.53125 23.4688H20.4688C20.6771 23.4688 20.8592 23.3904 21.015 23.2337C21.1717 23.0779 21.25 22.8958 21.25 22.6875V7.21875ZM12.25 20.9688H13.5V9.71875H12.25V20.9688ZM16.5 20.9688H17.75V9.71875H16.5V20.9688ZM8.75 7.21875V23.4688V22.6875V7.21875Z" fill="#5F5F5F"/>
</svg>
